<?xml version="1.0" encoding="UTF-8"?>
<svg width="3in" height="1in" version="1.1" viewBox="0 0 76.2 25.4" xmlns="http://www.w3.org/2000/svg" xmlns:cc="http://creativecommons.org/ns#" xmlns:dc="http://purl.org/dc/elements/1.1/" xmlns:rdf="http://www.w3.org/1999/02/22-rdf-syntax-ns#">
 <metadata>
  <rdf:RDF>
   <cc:Work rdf:about="">
    <dc:format>image/svg+xml</dc:format>
    <dc:type rdf:resource="http://purl.org/dc/dcmitype/StillImage"/>
    <dc:title/>
   </cc:Work>
  </rdf:RDF>
 </metadata>
 <g fill="#e6c4d6" stroke-width=".26458">
  <path class="cls-1" d="m41.16 9.8323a4.2418 4.2416 0 0 0-0.54601-0.69282c-2.2465-2.3061-6.3522-1.4659-7.5771 1.4793-0.59971 1.4402-0.38109 3.2003 0.58519 4.4259a4.5117 4.5114 0 0 0 1.1696 1.0377c1.2498 0.77308 2.8709 0.918 4.2325 0.36216 1.3616-0.55585 2.4224-1.8001 2.7397-3.2351 0.25479-1.1454 0.02272-2.3875-0.60382-3.3773z"/>
  <path class="cls-1" d="m28.693 16.082a4.5188 4.5185 0 0 1-1.1698-1.038c-0.96627-1.2256-1.1846-2.986-0.58519-4.4268 0.48108-1.1561 1.4063-1.9875 2.4887-2.4318-2.2627-0.97581-5.1897 0.0244-6.1916 2.4318-0.59944 1.441-0.38081 3.2011 0.58546 4.4268a4.5177 4.5174 0 0 0 1.1696 1.038c1.2498 0.77336 2.8709 0.918 4.2325 0.36243 0.03203-0.0131 0.06383-0.0274 0.09561-0.0408a4.5533 4.553 0 0 1-0.62519-0.32162z"/>
  <path class="cls-1" d="m18.975 7.9375a0.2841 0.28409 0 0 0-0.0915-0.0479c-0.13118-0.0377-0.26316-0.0726-0.39507-0.10695a1.4309 1.4308 0 0 0-0.18068-0.0392c-1.2513-0.15376-2.581-0.0429-3.6547 0.67291-1.0585 0.70536-1.7688 1.991-1.9687 3.2318-0.18339 1.1368 0.21717 2.4871 0.95738 3.3676 1.04 1.2401 2.8736 1.9226 4.4712 1.4688 0.10693-0.0302 0.21462-0.0535 0.32248-0.0753 0.20277-0.0409 0.40665-0.0768 0.60903-0.11876a1.4139 1.4139 0 0 0 0.20084-0.0636 0.048218 0.048215 0 0 0 0.01735-0.043 0.051231 0.051229 0 0 0-0.0369-0.0299 0.37204 0.37202 0 0 0-0.07816 6e-3c-0.74376 0.0687-1.5001-0.086-2.1691-0.41404-0.5941-0.29102-1.3932-0.83105-1.659-1.4667a0.69916 0.69912 0 0 0-0.04571-0.0802c-0.75303-1.277-0.83058-2.9521 0.03641-4.1987 0.04289-0.0615 0.08249-0.12505 0.12419-0.18721 0.15813-0.23475 0.33308-0.45425 0.56238-0.62542 0.10932-0.0814 0.22012-0.16189 0.32784-0.24533 0.2826-0.22054 0.59178-0.39714 0.90996-0.55957a3.2624 3.2622 0 0 1 0.81117-0.27372 3.1251 3.1249 0 0 1 0.53504-0.0671c0.13509-5e-3 0.26982-0.0276 0.41443-0.0435-0.0071-0.0251-0.0075-0.0515-0.02021-0.0614z"/>
  <path class="cls-1" d="m8.6423 16.082a4.5188 4.5185 0 0 1-1.1698-1.038c-0.96627-1.2256-1.1846-2.9858-0.58519-4.4268 0.67916-1.6322 2.2435-2.6173 3.8854-2.7787-1.9591-0.19533-4.0295 0.83116-4.8399 2.7787-0.59971 1.441-0.38108 3.2011 0.58519 4.4268a4.5177 4.5174 0 0 0 1.1696 1.038c0.87915 0.54406 1.9421 0.77637 2.969 0.67337a4.7193 4.7191 0 0 1-2.0142-0.67337z"/>
  <path class="cls-1" d="m65.96 16.082a4.5188 4.5185 0 0 0 1.1698-1.038c0.96626-1.2256 1.1846-2.986 0.58518-4.4268-0.67999-1.6322-2.2432-2.6173-3.8854-2.7787 1.9594-0.19533 4.0298 0.83116 4.8399 2.7787 0.59971 1.441 0.38109 3.2011-0.58519 4.4268a4.5177 4.5174 0 0 1-1.1696 1.038c-0.87888 0.54406-1.9421 0.77637-2.969 0.67337a4.7193 4.7191 0 0 0 2.0142-0.67337z"/>
  <path class="cls-1" d="m55.052 7.9759a0.28876 0.28874 0 0 1 0.09105-0.0479c0.13068-0.0394 0.2619-0.0761 0.39364-0.11208a1.4309 1.4308 0 0 1 0.18135-0.0425c1.2491-0.17006 2.5802-0.0766 3.6634 0.62525 1.0674 0.69148 1.7944 1.9678 2.0104 3.2058 0.19819 1.1343-0.18473 2.4897-0.91341 3.3798-1.024 1.2535-2.8483 1.9599-4.4517 1.527-0.10732-0.0288-0.2153-0.0507-0.32344-0.0711-0.20302-0.0383-0.40734-0.0714-0.61025-0.11079a1.4139 1.4139 0 0 1-0.20211-0.0591 0.048218 0.048215 0 0 1-0.01792-0.0427 0.051505 0.051502 0 0 1 0.03616-0.0304 0.37533 0.37531 0 0 1 0.07846 5e-3c0.7446 0.059 1.4989-0.10555 2.1635-0.44226 0.58996-0.29876 1.3822-0.84914 1.6398-1.4882a0.69916 0.69912 0 0 1 0.04473-0.0807c0.73631-1.2867 0.79204-2.9627-0.09113-4.1979-0.04363-0.0609-0.08415-0.12397-0.12663-0.18558-0.16117-0.23267-0.33896-0.44988-0.57047-0.61804-0.11038-0.08-0.22221-0.159-0.33101-0.24104-0.2856-0.21823-0.59713-0.38996-0.91759-0.54908a3.2577 3.2575 0 0 0-0.81303-0.26296 3.1251 3.1249 0 0 0-0.53746-0.0608c-0.13541-3e-3 -0.27014-0.0241-0.41496-0.0381 0.0063-0.0253 0.0063-0.0517 0.01863-0.0618z"/>
  <path class="cls-1" d="m46.023 16.082a4.5177 4.5174 0 0 0 1.1696-1.038c0.96628-1.2256 1.1849-2.986 0.5852-4.4268-0.48109-1.1561-1.406-1.9875-2.4884-2.4318 2.2627-0.97581 5.1894 0.0244 6.1916 2.4318 0.59944 1.441 0.38109 3.2011-0.58519 4.4268a4.5188 4.5185 0 0 1-1.1698 1.038c-1.2498 0.77336-2.8717 0.918-4.2325 0.36243-0.03203-0.0131-0.06411-0.0274-0.09588-0.0408a4.5566 4.5563 0 0 0 0.62546-0.32161z"/>
 </g>
</svg>
