<?xml version="1.0" encoding="UTF-8"?>
<svg width="1in" height="1in" version="1.1" viewBox="0 0 25.4 25.4" xmlns="http://www.w3.org/2000/svg" xmlns:cc="http://creativecommons.org/ns#" xmlns:dc="http://purl.org/dc/elements/1.1/" xmlns:rdf="http://www.w3.org/1999/02/22-rdf-syntax-ns#">
 <metadata>
  <rdf:RDF>
   <cc:Work rdf:about="">
    <dc:format>image/svg+xml</dc:format>
    <dc:type rdf:resource="http://purl.org/dc/dcmitype/StillImage"/>
    <dc:title/>
   </cc:Work>
  </rdf:RDF>
 </metadata>
 <g fill="#e6c4d6">
  <path class="cls-1" d="m40.003 31.61c-0.01328-0.02743 0.01991-0.03725 0.04028-0.0397 0.1536-0.01992 0.30894-0.01876 0.46196-0.0371 0.15303-0.01833 0.30908-0.05774 0.4331-0.14941 0.01213-0.0088 0.02396-0.01833 0.03508-0.02887 0.01111-0.01054 0.01877-0.02367 0.02729-0.03609 0.08763-0.12732 0.12271-0.2838 0.13614-0.43798 0.01343-0.15417 0.0078-0.30936 0.0231-0.46338 0.0018-0.02093 0.01053-0.05442 0.0384-0.04186s0.01443 0.07376 0.01443 0.09542c0 0.07723 4e-3 0.15446 0.01084 0.23097a2.7442 2.7441 0 0 0 0.08243 0.46613c0.01704 0.06381 0.03797 0.12992 0.07854 0.18044 0.05212 0.03912 0.11867 0.05774 0.18291 0.07319a2.7419 2.7418 0 0 0 0.46846 0.06828c0.07695 0.0045 0.15433 0.0058 0.2317 0.0036 0.02151 0 0.0833-0.01443 0.09571 0.01155s-0.01834 0.03767-0.03912 0.041c-0.1536 0.01978-0.30894 0.01848-0.46197 0.03681-0.15302 0.01833-0.30908 0.05774-0.43309 0.14955-0.01213 0.0088-0.02397 0.01833-0.03522 0.02887-0.01127 0.01054-0.01863 0.02367-0.02714 0.03594-0.08763 0.12747-0.12285 0.28395-0.13614 0.43798-0.01328 0.15403-0.0078 0.30936-0.0231 0.46353-0.0018 0.02093-0.01053 0.05428-0.0384 0.04186-0.02786-0.01242-0.01443-0.07377-0.01443-0.09542 0-0.07723-0.0039-0.15461-0.01069-0.23097a2.7353 2.7351 0 0 0-0.08373-0.46728c-0.01688-0.06366-0.03782-0.12992-0.07838-0.18045-0.05212-0.03898-0.11867-0.05774-0.18291-0.07305a2.7419 2.7418 0 0 0-0.46846-0.06842q-0.11549-0.0068-0.23098-0.0038c-0.02223 5.76e-4 -0.08402 0.01429-0.09658-0.01141z" display="none" stroke-width=".058542"/>
  <path class="cls-1" d="m125.43 81.172c-0.06-0.12396 0.09-0.16833 0.18203-0.17942 0.69419-0.09004 1.3962-0.08482 2.0878-0.16768 0.69159-0.08286 1.3969-0.26098 1.9573-0.67527 0.0548-0.0398 0.1083-0.08286 0.15854-0.13049 0.0502-0.04763 0.0848-0.107 0.12331-0.16311 0.39603-0.57545 0.55457-1.2827 0.61525-1.9795 0.0607-0.6968 0.0352-1.3982 0.10439-2.0943 8e-3 -0.0946 0.0476-0.24597 0.17355-0.18921 0.12592 0.05676 0.0652 0.3334 0.0652 0.43126 0 0.34905 0.0183 0.69811 0.049 1.0439a12.402 12.402 0 0 0 0.37253 2.1067c0.077 0.28838 0.1716 0.58719 0.35493 0.81555 0.23553 0.17681 0.53631 0.26097 0.82664 0.33078a12.392 12.392 0 0 0 2.1172 0.3086c0.34775 0.02023 0.69746 0.0261 1.0472 0.01631 0.0972 0 0.37646-0.06524 0.43257 0.05219 0.0561 0.11744-0.0829 0.17029-0.17681 0.18529-0.69419 0.08938-1.3962 0.08351-2.0878 0.16637-0.69158 0.08286-1.3969 0.26098-1.9573 0.67592-0.0548 0.0398-0.10831 0.08286-0.1592 0.13049-0.0509 0.04763-0.0842 0.107-0.12266 0.16246-0.39602 0.5761-0.55522 1.2833-0.61525 1.9795-0.06 0.69615-0.0352 1.3982-0.10439 2.095-8e-3 0.0946-0.0476 0.24532-0.17354 0.18921-0.12592-0.05611-0.0652-0.3334-0.0652-0.43126 0-0.34906-0.0176-0.69876-0.0483-1.0439a12.362 12.362 0 0 0-0.37841-2.1119c-0.0763-0.28772-0.17094-0.58719-0.35427-0.81555-0.23553-0.17616-0.53631-0.26098-0.82664-0.33013a12.392 12.392 0 0 0-2.1172-0.30926q-0.52196-0.03067-1.0439-0.01696c-0.10047 0.0026-0.37972 0.06459-0.43648-0.05154z" display="none" stroke-width=".26458"/>
  <path class="cls-1" d="m2.4515 13.484c-0.11855-0.24493 0.17783-0.33259 0.35966-0.35451 1.3716-0.17791 2.7587-0.16759 4.1252-0.3313 1.3665-0.16372 2.76-0.51565 3.8674-1.3342 0.10828-0.07864 0.21398-0.16372 0.31325-0.25782 0.09919-0.09411 0.16755-0.21142 0.24364-0.32228 0.7825-1.137 1.0957-2.5344 1.2156-3.9112 0.11993-1.3768 0.06955-2.7626 0.20626-4.1381 0.01581-0.18692 0.09405-0.486 0.34291-0.37384 0.2488 0.11215 0.12882 0.65874 0.12882 0.85211 0 0.68968 0.03616 1.3794 0.09682 2.0626a24.505 24.505 0 0 0 0.73606 4.1626c0.15214 0.56979 0.33906 1.1602 0.70129 1.6114 0.46537 0.34935 1.0597 0.51565 1.6333 0.65358a24.484 24.484 0 0 0 4.1832 0.60975c0.6871 0.03997 1.3781 0.05157 2.069 0.03223 0.19205 0 0.74383-0.1289 0.85469 0.10312 0.11084 0.23204-0.1638 0.33646-0.34935 0.36611-1.3716 0.1766-2.7587 0.165-4.1252 0.32873-1.3665 0.16372-2.76 0.51565-3.8674 1.3355-0.10828 0.07864-0.214 0.16372-0.31456 0.25782-0.10057 0.09411-0.16637 0.21141-0.24236 0.32099-0.78248 1.1383-1.097 2.5357-1.2156 3.9112-0.11855 1.3755-0.06955 2.7626-0.20626 4.1394-0.01581 0.18692-0.09405 0.48471-0.34289 0.37384-0.2488-0.11086-0.12883-0.65874-0.12883-0.8521 0-0.68968-0.03477-1.3806-0.09543-2.0626a24.425 24.425 0 0 0-0.74768-4.1729c-0.15076-0.5685-0.33775-1.1602-0.69998-1.6114-0.46537-0.34806-1.0597-0.51565-1.6333-0.65229a24.484 24.484 0 0 0-4.1832-0.61104q-1.0313-0.0606-2.0626-0.03351c-0.19851 0.0051-0.75027 0.12762-0.86242-0.10184z" stroke-width=".26458"/>
 </g>
</svg>
